<mxfile host="app.diagrams.net" modified="2023-05-10T06:12:16.142Z" agent="Mozilla/5.0 (Windows NT 10.0; Win64; x64) AppleWebKit/537.36 (KHTML, like Gecko) Chrome/112.0.0.0 Safari/537.36" version="21.2.9" etag="G9BeUSYqsAIZV0clzuwE" type="github">
  <diagram name="第 1 页" id="FOBdPz7cUi5Azt7YdWTi">
    <mxGraphModel>
      <root>
        <mxCell id="0" />
        <mxCell id="1" parent="0" />
      </root>
    </mxGraphModel>
  </diagram>
</mxfile>
